<?xml version="1.0" encoding="UTF-8"?><svg id="Layer_1" xmlns="http://www.w3.org/2000/svg" viewBox="0 0 138.59 160.43"><defs><style>.cls-1{fill:#fff;}</style></defs><path class="cls-1" d="M21.61,117.2v-17.38c0-5.94,1.44-11.36,4.34-16.26,2.89-4.9,6.8-8.79,11.7-11.7,4.9-2.89,10.33-4.34,16.26-4.34h50.58v-33.43H0V0h106.06c5.94,0,11.36,1.45,16.26,4.35,4.9,2.89,8.84,6.79,11.81,11.7,2.96,4.9,4.45,10.33,4.45,16.26v36.98c0,5.95-1.49,11.37-4.45,16.26-2.97,4.9-6.91,8.84-11.81,11.81s-10.33,4.46-16.26,4.46h-50.14v15.37H21.61ZM21.61,160.43v-34.09h34.31v34.09H21.61Z"/></svg>